<svg xmlns="http://www.w3.org/2000/svg" width="1600" height="900" viewBox="0 0 1600 900" fill="none">
  <defs>
    <linearGradient id="g" x1="0" y1="0" x2="1" y2="1">
      <stop offset="0%" stop-color="#13294b"/>
      <stop offset="55%" stop-color="#1e3a5f"/>
      <stop offset="100%" stop-color="#0b1628"/>
    </linearGradient>
    <linearGradient id="shelf" x1="0" y1="0" x2="0" y2="1">
      <stop offset="0%" stop-color="#243b5e"/>
      <stop offset="100%" stop-color="#15243d"/>
    </linearGradient>
  </defs>
  <rect width="1600" height="900" fill="url(#g)"/>
  <g opacity="0.35">
    <circle cx="1180" cy="220" r="260" fill="#3b82f6"/>
    <circle cx="1380" cy="560" r="200" fill="#10b981" opacity="0.35"/>
  </g>
  <!-- Register silhouette -->
  <rect x="920" y="210" width="420" height="280" rx="24" fill="url(#shelf)" stroke="#94a3b8" stroke-opacity="0.25"/>
  <rect x="950" y="240" width="360" height="180" rx="12" fill="#0f172a"/>
  <rect x="970" y="260" width="120" height="16" rx="4" fill="#64748b"/>
  <rect x="970" y="290" width="200" height="12" rx="4" fill="#334155"/>
  <rect x="970" y="320" width="160" height="12" rx="4" fill="#334155"/>
  <rect x="970" y="360" width="100" height="28" rx="8" fill="#3b82f6"/>
  <rect x="920" y="510" width="420" height="90" rx="18" fill="#1a2f4d" stroke="#94a3b8" stroke-opacity="0.2"/>
  <g fill="#475569">
    <rect x="950" y="535" width="48" height="40" rx="8"/>
    <rect x="1010" y="535" width="48" height="40" rx="8"/>
    <rect x="1070" y="535" width="48" height="40" rx="8"/>
    <rect x="1130" y="535" width="48" height="40" rx="8"/>
    <rect x="1190" y="535" width="48" height="40" rx="8"/>
    <rect x="1250" y="535" width="48" height="40" rx="8"/>
  </g>
  <!-- Product tiles suggestion -->
  <rect x="180" y="280" width="160" height="180" rx="20" fill="#152942" stroke="#64748b" stroke-opacity="0.3"/>
  <rect x="370" y="280" width="160" height="180" rx="20" fill="#152942" stroke="#64748b" stroke-opacity="0.3"/>
  <rect x="560" y="280" width="160" height="180" rx="20" fill="#152942" stroke="#64748b" stroke-opacity="0.3"/>
  <rect x="210" y="310" width="100" height="70" rx="10" fill="#1e3a5f"/>
  <rect x="400" y="310" width="100" height="70" rx="10" fill="#1e3a5f"/>
  <rect x="590" y="310" width="100" height="70" rx="10" fill="#1e3a5f"/>
  <rect x="210" y="400" width="80" height="10" rx="4" fill="#64748b"/>
  <rect x="400" y="400" width="90" height="10" rx="4" fill="#64748b"/>
  <rect x="590" y="400" width="70" height="10" rx="4" fill="#64748b"/>
  <rect x="210" y="420" width="50" height="10" rx="4" fill="#94a3b8"/>
  <rect x="400" y="420" width="50" height="10" rx="4" fill="#94a3b8"/>
  <rect x="590" y="420" width="50" height="10" rx="4" fill="#94a3b8"/>
</svg>
